<svg xmlns="http://www.w3.org/2000/svg" xmlns:xlink="http://www.w3.org/1999/xlink" width="150" zoomAndPan="magnify" viewBox="0 0 375 374.999991" height="150" preserveAspectRatio="xMidYMid meet" version="1.0"><defs><g><g id="id1"/></g></defs><g fill="rgb(100%, 100%, 100%)" fill-opacity="1"><g transform="translate(38.683596, 218.287961)"><g><path d="M 23.921875 -53.890625 L 25.3125 -53.890625 C 35.382812 -53.890625 42.972656 -47.695312 48.078125 -35.3125 C 48.703125 -32.632812 49.085938 -29.84375 49.234375 -26.9375 C 49.234375 -21.789062 47.765625 -15.210938 44.828125 -7.203125 L 41.34375 -6.265625 L 40.640625 -6.265625 C 39.867188 -6.734375 39.484375 -7.273438 39.484375 -7.890625 L 42.265625 -19.75 L 42.265625 -24.15625 C 42.265625 -31.78125 38.859375 -37.664062 32.046875 -41.8125 C 29.378906 -42.894531 26.828125 -43.4375 24.390625 -43.4375 L 23.921875 -43.4375 C 17.878906 -43.4375 13.625 -41.578125 11.15625 -37.859375 C 8.050781 -33.984375 6.5 -29.800781 6.5 -25.3125 L 6.5 -24.15625 C 6.5 -17.5 9.441406 -12.851562 15.328125 -10.21875 L 18.8125 -9.75 C 25.394531 -9.75 29.265625 -13.003906 30.421875 -19.515625 L 30.421875 -22.0625 C 30.421875 -25.195312 27.867188 -27.441406 22.765625 -28.796875 L 21.59375 -28.796875 C 18.695312 -28.796875 17.070312 -27.015625 16.71875 -23.453125 C 16.71875 -21.796875 17.648438 -20.632812 19.515625 -19.96875 C 20.554688 -19.96875 21.25 -20.898438 21.59375 -22.765625 L 21.375 -24.15625 C 21.914062 -25.082031 22.84375 -25.546875 24.15625 -25.546875 L 24.859375 -25.546875 C 26.398438 -25.546875 27.171875 -24.460938 27.171875 -22.296875 L 26.9375 -22.296875 L 27.171875 -21.59375 C 27.171875 -17.53125 24.617188 -14.515625 19.515625 -12.546875 L 18.8125 -12.546875 C 13.46875 -12.546875 10.445312 -15.875 9.75 -22.53125 C 9.75 -28.414062 13.15625 -32.597656 19.96875 -35.078125 L 22.53125 -35.3125 L 23.234375 -35.3125 C 29.035156 -35.3125 33.367188 -31.75 36.234375 -24.625 C 36.847656 -22.375 37.15625 -20.359375 37.15625 -18.578125 L 37.15625 -16.953125 C 37.15625 -10.335938 33.519531 -5.226562 26.25 -1.625 C 23.84375 -0.539062 21.363281 0 18.8125 0 L 18.109375 0 C 11.421875 0 6.082031 -3.867188 2.09375 -11.609375 C 0.695312 -15.441406 0 -19.160156 0 -22.765625 C 0 -30.734375 2.398438 -38.394531 7.203125 -45.75 C 12.191406 -51.175781 17.765625 -53.890625 23.921875 -53.890625 Z M 23.921875 -53.890625 "/></g></g></g><g fill="rgb(100%, 100%, 100%)" fill-opacity="1"><g transform="translate(88.268198, 218.287961)"><g><path d="M 20.203125 -58.875 L 20.90625 -58.875 C 22.757812 -58.71875 23.6875 -57.945312 23.6875 -56.5625 L 23.6875 -55.859375 C 23.6875 -54.429688 21.90625 -52.492188 18.34375 -50.046875 C 12 -44.828125 8.828125 -37.785156 8.828125 -28.921875 L 8.828125 -27.984375 C 8.828125 -22.097656 10.6875 -18.148438 14.40625 -16.140625 C 15.945312 -15.523438 17.257812 -15.21875 18.34375 -15.21875 L 20.671875 -15.21875 C 25.472656 -15.21875 29.113281 -17.148438 31.59375 -21.015625 L 32.046875 -23.34375 C 31.703125 -25.664062 30.695312 -26.828125 29.03125 -26.828125 L 28.5625 -26.828125 C 27.40625 -26.828125 25.703125 -26.207031 23.453125 -24.96875 L 21.828125 -24.5 C 19.160156 -24.5 17.378906 -26.671875 16.484375 -31.015625 L 16.265625 -33.796875 C 16.265625 -44.328125 21.0625 -51.21875 30.65625 -54.46875 C 34.03125 -55.550781 37.515625 -56.09375 41.109375 -56.09375 C 49.898438 -56.09375 56.789062 -51.601562 61.78125 -42.625 C 64.257812 -36.507812 65.5 -30.082031 65.5 -23.34375 C 65.5 -6.15625 58.222656 5.378906 43.671875 11.265625 C 41.960938 12.347656 38.941406 13.429688 34.609375 14.515625 L 34.140625 14.515625 C 32.128906 14.515625 30.890625 13.507812 30.421875 11.5 L 30.421875 10.5625 C 30.421875 8.9375 33.132812 7.390625 38.5625 5.921875 C 50.175781 1.203125 55.984375 -5.765625 55.984375 -14.984375 L 55.984375 -18.46875 C 55.984375 -32.789062 51.257812 -41.382812 41.8125 -44.25 L 36.234375 -44.9375 C 29.421875 -44.9375 24.929688 -42 22.765625 -36.125 L 22.53125 -33.796875 C 23 -32.085938 23.460938 -31.234375 23.921875 -31.234375 L 24.15625 -31.234375 C 25.894531 -32.472656 27.832031 -33.09375 29.96875 -33.09375 L 31.359375 -33.09375 C 36.234375 -33.09375 40.179688 -28.988281 43.203125 -20.78125 L 43.671875 -17.078125 C 43.671875 -10.296875 39.488281 -5.03125 31.125 -1.28125 C 28.726562 -0.5 26.5625 -0.109375 24.625 -0.109375 L 22.53125 -0.109375 C 13.007812 -0.109375 5.960938 -5.453125 1.390625 -16.140625 C 0.460938 -20.046875 0 -22.988281 0 -24.96875 C 0 -37.050781 5.960938 -47.96875 17.890625 -57.71875 C 18.929688 -58.488281 19.703125 -58.875 20.203125 -58.875 Z M 20.203125 -58.875 "/></g></g></g><g fill="rgb(100%, 100%, 100%)" fill-opacity="1"><g transform="translate(155.097101, 218.287961)"><g><path d="M 15.328125 -71.25 C 19.972656 -71.25 24.460938 -68.613281 28.796875 -63.34375 C 30.503906 -60.675781 31.359375 -58.046875 31.359375 -55.453125 C 31.359375 -51.660156 29.65625 -47.945312 26.25 -44.3125 C 20.550781 -39.8125 16.753906 -36.398438 14.859375 -34.078125 C 13.160156 -32.148438 12.3125 -29.597656 12.3125 -26.421875 C 12.3125 -21.117188 14.398438 -17.632812 18.578125 -15.96875 L 22.0625 -15.5 L 23.234375 -15.5 C 31.585938 -16.3125 35.765625 -18.867188 35.765625 -23.171875 L 35.765625 -24.09375 C 35.492188 -26.257812 34.410156 -27.34375 32.515625 -27.34375 C 31.316406 -27.34375 29.382812 -26.492188 26.71875 -24.796875 L 25.078125 -24.5625 C 23.066406 -24.5625 22.0625 -26.804688 22.0625 -31.296875 C 22.0625 -41.328125 28.023438 -48.453125 39.953125 -52.671875 C 42.273438 -53.484375 45.988281 -54.023438 51.09375 -54.296875 C 56.28125 -52.859375 60.226562 -50.378906 62.9375 -46.859375 C 67.28125 -41.628906 69.453125 -34.117188 69.453125 -24.328125 C 69.453125 -10.085938 64.960938 0.0507812 55.984375 6.09375 C 53.390625 8.257812 49.128906 10.503906 43.203125 12.828125 L 38.328125 14.21875 C 35.535156 13.675781 34.140625 12.519531 34.140625 10.75 C 34.140625 8.769531 36.234375 7.296875 40.421875 6.328125 C 46.878906 3.890625 51.910156 0.789062 55.515625 -2.96875 C 58.921875 -7.570312 60.625 -13.84375 60.625 -21.78125 C 60.625 -31.757812 56.90625 -38.335938 49.46875 -41.515625 C 47.570312 -42.140625 45.945312 -42.453125 44.59375 -42.453125 L 42.734375 -42.453125 C 36.816406 -42.453125 32.09375 -40.207031 28.5625 -35.71875 L 27.875 -33.15625 L 27.875 -32.921875 L 28.109375 -31.765625 C 30.191406 -33.003906 32.359375 -33.625 34.609375 -33.625 C 39.984375 -33.625 44.164062 -29.441406 47.15625 -21.078125 L 47.609375 -17.59375 C 47.609375 -10.507812 43.273438 -5.164062 34.609375 -1.5625 C 32.242188 -0.789062 29.84375 -0.40625 27.40625 -0.40625 C 16.84375 -0.40625 9.101562 -6.054688 4.1875 -17.359375 C 3.5625 -19.410156 3.171875 -21.65625 3.015625 -24.09375 C 3.015625 -31.988281 6.890625 -38.492188 14.640625 -43.609375 C 17.234375 -44.765625 20.328125 -47.007812 23.921875 -50.34375 C 24.691406 -52.125 25.15625 -53.75 25.3125 -55.21875 C 25.3125 -58.9375 23.066406 -62.191406 18.578125 -64.984375 L 15.796875 -65.4375 L 15.5625 -65.4375 C 10.570312 -65.4375 7.628906 -62.804688 6.734375 -57.546875 L 6.734375 -56.609375 C 7.234375 -52.117188 9.171875 -49.875 12.546875 -49.875 C 16.410156 -50.53125 18.34375 -51.925781 18.34375 -54.0625 L 18.34375 -55.21875 C 18.15625 -56.613281 17.460938 -57.3125 16.265625 -57.3125 C 14.710938 -56.726562 13.9375 -55.722656 13.9375 -54.296875 C 13.195312 -53.828125 12.191406 -53.59375 10.921875 -53.59375 C 9.210938 -53.90625 8.359375 -54.679688 8.359375 -55.921875 L 8.359375 -56.609375 C 9.640625 -60.171875 12.273438 -61.953125 16.265625 -61.953125 L 16.484375 -61.953125 C 19.546875 -61.953125 21.867188 -59.707031 23.453125 -55.21875 L 23.453125 -54.75 C 23.453125 -50.570312 20.28125 -47.398438 13.9375 -45.234375 L 11.609375 -45 L 10.453125 -45 C 5.878906 -45 2.628906 -47.707031 0.703125 -53.125 L 0.234375 -56.84375 C 0.234375 -62.65625 3.640625 -67.144531 10.453125 -70.3125 C 11.335938 -70.78125 12.960938 -71.09375 15.328125 -71.25 Z M 15.328125 -71.25 "/></g></g></g><g fill="rgb(100%, 100%, 100%)" fill-opacity="1"><g transform="translate(225.119385, 218.287961)"><g><path d="M 12.78125 -52.5 L 14.859375 -52.5 C 24.234375 -52.5 31.203125 -47.3125 35.765625 -36.9375 C 37.003906 -32.863281 37.625 -29.066406 37.625 -25.546875 C 37.625 -15.171875 33.441406 -7.429688 25.078125 -2.328125 C 22.097656 -0.773438 19.390625 0 16.953125 0 L 14.640625 0 C 8.628906 0 4.210938 -3.019531 1.390625 -9.0625 L 0.921875 -12.3125 L 0.921875 -13 C 0.921875 -18.539062 4.019531 -23.5 10.21875 -27.875 L 13.234375 -28.796875 C 15.867188 -26.710938 17.1875 -24.929688 17.1875 -23.453125 C 17.1875 -23.222656 15.945312 -22.679688 13.46875 -21.828125 C 8.664062 -18.890625 6.265625 -16.101562 6.265625 -13.46875 L 6.265625 -12.78125 C 6.265625 -9.601562 9.363281 -7.351562 15.5625 -6.03125 L 16.484375 -6.03125 C 22.453125 -6.03125 26.328125 -10.132812 28.109375 -18.34375 L 28.5625 -22.765625 L 28.5625 -23 C 28.5625 -33.832031 23.609375 -41.109375 13.703125 -44.828125 L 12.546875 -44.828125 C 9.753906 -44.828125 8.359375 -42.738281 8.359375 -38.5625 L 8.359375 -37.15625 C 8.359375 -35.457031 8.742188 -33.0625 9.515625 -29.96875 C 9.015625 -28.570312 7.625 -27.875 5.34375 -27.875 L 3.71875 -27.875 C 1.238281 -27.875 0 -29.5 0 -32.75 L 0 -35.078125 C 0 -43.160156 2.242188 -48.421875 6.734375 -50.859375 C 8.671875 -51.953125 10.6875 -52.5 12.78125 -52.5 Z M 12.78125 -52.5 "/></g></g></g><g fill="rgb(100%, 100%, 100%)" fill-opacity="1"><g transform="translate(264.194857, 218.287961)"><g><path d="M 11.375 -70.265625 L 12.546875 -70.265625 C 20.054688 -70.265625 29.113281 -63.21875 39.71875 -49.125 L 39.953125 -49.125 C 42.046875 -50.675781 44.753906 -51.453125 48.078125 -51.453125 C 60.578125 -51.453125 68.164062 -42.859375 70.84375 -25.671875 L 70.84375 -20.5625 C 70.84375 -7.976562 66.117188 2.007812 56.671875 9.40625 C 52.796875 12.039062 48.613281 13.359375 44.125 13.359375 L 41.8125 13.359375 C 39.332031 12.660156 38.09375 11.5 38.09375 9.875 L 38.09375 9.40625 C 38.09375 7.894531 39.410156 6.890625 42.046875 6.390625 L 42.5 6.390625 L 43.4375 6.625 C 48.3125 6.625 52.878906 3.601562 57.140625 -2.4375 C 60.078125 -8.164062 61.546875 -13.894531 61.546875 -19.625 L 61.546875 -20.5625 C 61.546875 -29.84375 58.296875 -36.191406 51.796875 -39.609375 L 48.546875 -40.0625 L 47.390625 -40.0625 C 46.296875 -40.03125 45.75 -39.878906 45.75 -39.609375 C 51.175781 -30.347656 53.890625 -22.988281 53.890625 -17.53125 C 53.890625 -11.03125 50.632812 -5.921875 44.125 -2.203125 C 40.914062 -0.660156 36.582031 0.109375 31.125 0.109375 L 29.03125 0.109375 C 19.15625 0.109375 10.5625 -4.6875 3.25 -14.28125 C 1.082031 -17.800781 0 -21.207031 0 -24.5 C 0 -28.988281 1.625 -31.234375 4.875 -31.234375 L 6.265625 -31.234375 C 7.117188 -31.234375 8.820312 -29.84375 11.375 -27.0625 C 13.125 -25.820312 14.597656 -25.203125 15.796875 -25.203125 L 16.953125 -25.203125 C 18.773438 -25.203125 21.332031 -27.523438 24.625 -32.171875 L 34.84375 -45.171875 L 34.84375 -45.40625 C 26.320312 -56.707031 18.734375 -62.359375 12.078125 -62.359375 C 8.515625 -62.359375 6.425781 -60.734375 5.8125 -57.484375 L 5.8125 -57.015625 C 5.8125 -53.035156 8.828125 -49.476562 14.859375 -46.34375 C 16.640625 -45.5625 18.113281 -45.171875 19.28125 -45.171875 C 21.757812 -45.484375 23 -46.566406 23 -48.421875 C 23 -51.753906 21.21875 -54.078125 17.65625 -55.390625 L 16.03125 -55.625 C 15.0625 -55.625 14.363281 -55.238281 13.9375 -54.46875 L 13.9375 -53.765625 C 13.9375 -51.953125 15.640625 -50.867188 19.046875 -50.515625 L 19.515625 -49.828125 L 19.515625 -49.125 C 19.515625 -47.882812 18.816406 -47.265625 17.421875 -47.265625 C 12.003906 -48.160156 9.296875 -50.71875 9.296875 -54.9375 L 9.296875 -55.625 C 9.710938 -58.726562 11.179688 -60.28125 13.703125 -60.28125 L 14.171875 -60.28125 C 19.660156 -60.28125 23.6875 -56.945312 26.25 -50.28125 L 26.71875 -46.796875 C 26.25 -42.773438 24.234375 -40.765625 20.671875 -40.765625 L 19.96875 -40.765625 C 14.363281 -40.765625 8.484375 -44.015625 2.328125 -50.515625 C 0.617188 -53.148438 -0.234375 -55.628906 -0.234375 -57.953125 L -0.234375 -58.640625 C -0.234375 -63.171875 2.707031 -66.890625 8.59375 -69.796875 Z M 19.28125 -19.15625 L 12.546875 -19.390625 C 11.617188 -19.234375 11.15625 -19.003906 11.15625 -18.703125 C 11.15625 -16.492188 13.941406 -14.171875 19.515625 -11.734375 C 21.640625 -11.109375 23.570312 -10.796875 25.3125 -10.796875 L 26.484375 -10.796875 C 33.253906 -10.796875 38.128906 -13.816406 41.109375 -19.859375 C 41.734375 -21.679688 42.046875 -23.691406 42.046875 -25.890625 L 42.046875 -26.125 C 42.046875 -29.1875 41.191406 -32.828125 39.484375 -37.046875 L 39.25 -37.046875 C 34.988281 -34.410156 31.117188 -30.304688 27.640625 -24.734375 C 24.734375 -21.015625 21.945312 -19.15625 19.28125 -19.15625 Z M 19.28125 -19.15625 "/></g></g></g><g fill="rgb(100%, 100%, 100%)" fill-opacity="1"><g transform="translate(335.610608, 218.287961)"><g><path d="M -14.40625 -103.46875 C -11.300781 -102.925781 -9.75 -101.378906 -9.75 -98.828125 L -9.75 -98.140625 C -9.75 -97.015625 -10.832031 -93.453125 -13 -87.453125 L -13 -87.21875 C -12.582031 -84.582031 -11.269531 -83.265625 -9.0625 -83.265625 C -6.925781 -83.265625 -4.910156 -86.59375 -3.015625 -93.25 C -1.234375 -96.039062 1.085938 -97.4375 3.953125 -97.4375 L 4.40625 -97.4375 C 8.394531 -97.4375 11.1875 -95.347656 12.78125 -91.171875 L 13.234375 -86.515625 C 13.234375 -82.140625 11.6875 -79.125 8.59375 -77.46875 C 7.976562 -77.15625 7.125 -77 6.03125 -77 L 4.875 -77 C 1.78125 -77 -0.078125 -79.164062 -0.703125 -83.5 L -0.703125 -85.359375 C -0.0351562 -90.316406 1.359375 -92.796875 3.484375 -92.796875 L 3.953125 -92.796875 C 5.492188 -92.796875 6.578125 -91.320312 7.203125 -88.375 L 7.203125 -87.6875 C 6.929688 -84.28125 6 -82.578125 4.40625 -82.578125 L 4.1875 -82.578125 C 3.5625 -82.765625 3.25 -83.457031 3.25 -84.65625 L 3.25 -85.828125 L 4.640625 -87.453125 L 4.640625 -88.609375 L 3.953125 -89.3125 C 2.554688 -89.3125 1.859375 -88.070312 1.859375 -85.59375 L 1.859375 -85.125 C 2.171875 -82.800781 3.175781 -81.640625 4.875 -81.640625 C 7.195312 -81.640625 8.59375 -83.113281 9.0625 -86.0625 L 9.0625 -87.90625 C 9.0625 -90.65625 7.820312 -92.75 5.34375 -94.1875 L 4.40625 -94.1875 C 1.269531 -94.1875 -0.660156 -91.628906 -1.390625 -86.515625 C -2.859375 -79.703125 -5.800781 -76.296875 -10.21875 -76.296875 C -11.34375 -76.296875 -13.28125 -76.914062 -16.03125 -78.15625 L -16.03125 -77.921875 C -17.269531 -71.691406 -17.890625 -66.816406 -17.890625 -63.296875 C -17.578125 -57.722656 -17.035156 -53.460938 -16.265625 -50.515625 C -17.109375 -47.421875 -18.421875 -45.875 -20.203125 -45.875 C -23.304688 -51.5625 -24.859375 -59.226562 -24.859375 -68.875 C -24.859375 -78.039062 -23.539062 -88.023438 -20.90625 -98.828125 C -19.039062 -101.921875 -16.875 -103.46875 -14.40625 -103.46875 Z M -14.40625 -103.46875 "/></g></g></g></svg>